<svg width="363" height="250" viewBox="0 0 363 250" fill="none" xmlns="http://www.w3.org/2000/svg">
<path d="M195.685 164.053C196.856 163.76 199.902 163.877 202.714 166.689" stroke="white" stroke-width="2" stroke-linecap="round"/>
<path d="M205.35 157.023C206.082 156.291 208.601 155.617 212.819 158.78" stroke="white" stroke-width="2" stroke-linecap="round"/>
<path d="M229.513 244.89C235.957 236.396 249.898 215.015 254.116 197.442L265.538 160.099C269.053 142.672 278.279 104.919 287.066 93.3202C293.656 78.9687 313.513 53.5167 340.225 66.521L361.313 74.429" stroke="white" stroke-width="3" stroke-linecap="round"/>
<path d="M160.977 238.739V196.124H1.5" stroke="white" stroke-width="3" stroke-linecap="round"/>
<path d="M58.6132 92.8809H163.613V196.563H160.099" stroke="white" stroke-width="3" stroke-linecap="round"/>
<path d="M224.241 62.5673C216.333 70.9146 202.89 92.5297 212.379 112.212C210.329 115.141 206.229 121.262 206.229 122.316C206.229 123.634 208.425 129.785 218.969 131.103C219.701 132.86 221.781 136.639 224.241 137.693C227.317 139.011 222.045 142.965 233.028 149.116C238.446 153.655 252.534 162.208 265.538 160.099C269.639 141.501 279.597 102.019 286.626 92.8812L275.204 80.5799C262.463 78.2368 234.873 71.266 226.438 62.1279" stroke="white" stroke-width="3" stroke-linecap="round"/>
<path d="M225.12 100.789C223.509 98.5925 222.484 92.7934 231.271 87.1699" stroke="white" stroke-width="3" stroke-linecap="round"/>
<path d="M212.379 95.9563C212.965 91.1237 215.191 80.9312 219.409 78.8224C220.287 78.5295 223.099 77.5044 227.317 75.7471C223.363 77.0651 214.84 82.9521 212.379 95.9563Z" stroke="white" stroke-width="3" stroke-linecap="round"/>
<path d="M222.923 112.651C224.681 112.944 227.492 115.287 224.681 122.317" stroke="white" stroke-width="2" stroke-linecap="round"/>
<path d="M226.877 103.864C227.902 97.567 231.183 84.3577 236.103 81.8975" stroke="white" stroke-width="2" stroke-linecap="round"/>
<path d="M224.681 100.35C221.459 98.739 218.179 93.8478 230.831 87.1699" stroke="white" stroke-width="3" stroke-linecap="round"/>
<path d="M214.576 124.074C214.576 122.317 216.07 119.153 222.045 120.559C221.605 120.413 219.496 120.911 214.576 124.074Z" stroke="white" stroke-width="3" stroke-linecap="round"/>
<path d="M225.559 138.571C224.827 137.839 225.12 134.09 232.149 124.952C228.049 126.27 220.287 130.4 222.045 136.375" stroke="white" stroke-width="2" stroke-linecap="round"/>
<path d="M219.848 126.71L213.697 128.467C215.747 129.2 220.112 130.488 221.166 129.785C222.22 129.082 220.727 127.442 219.848 126.71Z" stroke="white" stroke-width="3" stroke-linecap="round"/>
<path d="M185.141 158.781C184.116 149.116 182.241 128.467 182.944 123.195C180.162 122.756 176.091 116.166 182.065 93.3205C179.576 88.0485 175.651 73.3748 179.869 56.856C175.768 53.6342 167.128 45.0819 165.371 36.6467C170.643 34.4501 184.965 30.2325 200.078 30.9354L310.35 29.1781L348.133 26.9814" stroke="white" stroke-width="3" stroke-linecap="round"/>
<path d="M209.743 102.985C204.178 99.1775 196.388 88.5749 209.743 76.6251C206.229 69.8887 203.505 55.5372 220.727 52.0225C223.948 47.7757 236.542 39.0183 261.145 37.9639C278.572 35.7673 315.622 37.6125 324.409 62.5665" stroke="white" stroke-width="3" stroke-linecap="round"/>
<path d="M223.363 143.404C212.086 138.571 188.48 126.709 184.262 117.923" stroke="white" stroke-width="2" stroke-linecap="round"/>
<path d="M210.183 110.454C206.229 108.257 197.53 101.667 194.367 92.8809" stroke="white" stroke-width="3" stroke-linecap="round"/>
<path d="M204.471 81.0192C197.735 74.1364 185.404 57.2074 189.973 44.5547" stroke="white" stroke-width="2" stroke-linecap="round"/>
<path d="M212.379 212.379C205.496 209.157 190.676 200.868 186.459 193.488C182.358 192.17 174.772 188.391 177.233 183.822C177.233 182.504 179.078 180.483 186.459 182.944C187.484 182.651 187.952 181.186 181.626 177.672C180.015 176.647 177.76 173.718 181.626 170.203C182.358 169.617 185.404 169.149 191.731 171.96L193.049 170.203C189.973 169.032 183.911 165.722 184.262 161.856C184.408 159.366 186.107 154.914 191.731 157.023L198.76 161.856H201.396C197.735 158.781 190.676 151.751 191.731 148.237C191.584 145.308 193.927 141.207 204.471 148.237C211.647 153.216 226.614 163.877 229.074 166.688L221.166 157.023C218.676 156.73 213.961 154.826 215.015 149.555C216.48 149.701 220.375 150.17 224.241 150.873C225.559 150.58 228.722 150.697 230.831 153.508L239.618 165.37L244.011 183.822C244.011 184.994 243.572 188.567 241.814 193.488C240.057 198.408 245.183 209.304 247.965 214.136" stroke="white" stroke-width="3" stroke-linecap="round"/>
<path d="M212.379 212.818C214.869 217.944 219.233 231.534 216.773 244.89" stroke="white" stroke-width="3" stroke-linecap="round"/>
<path d="M189.973 175.035C191.731 174.596 196.036 174.596 199.199 178.111" stroke="white" stroke-width="2" stroke-linecap="round"/>
<path d="M2.81799 184.702H163.613" stroke="white" stroke-width="2" stroke-linecap="round"/>
<path d="M66.0818 149.554L105.622 178.989C107.027 180.036 112.065 179.425 114.408 178.989L140.329 168.885C142.438 165.37 141.208 162.441 140.329 161.416L102.107 133.738C97.1865 129.872 93.0275 130.663 91.563 131.541L66.0818 141.646C62.9186 144.809 64.7638 148.236 66.0818 149.554Z" stroke="white" stroke-width="3" stroke-linecap="round"/>
<path d="M93.3205 132.86L70.0359 142.086C67.2242 143.2 68.8643 144.6 70.0359 145.161L105.622 172.4C107.379 175.212 111.04 174.743 112.651 174.157L136.814 164.492C139.275 163.086 137.839 161.856 136.814 161.417L99.0318 134.178C95.8686 132.42 93.9063 132.567 93.3205 132.86Z" stroke="white" stroke-width="2" stroke-linecap="round"/>
<path d="M156.145 244.45C160.538 238.593 171.082 226.262 178.111 223.802C185.287 219.262 201.923 210.885 211.061 213.697" stroke="white" stroke-width="3" stroke-linecap="round"/>
<path d="M185.58 166.249V169.764" stroke="white" stroke-width="3" stroke-linecap="round"/>
<path d="M183.383 193.049C183.676 198.907 185.756 211.764 191.731 216.333" stroke="white" stroke-width="3" stroke-linecap="round"/>
<path d="M202.275 213.258C198.906 211.354 191.819 206.756 190.413 203.593" stroke="white" stroke-width="2" stroke-linecap="round"/>
<path d="M171.521 228.195C170.35 203.153 168.71 151.048 171.521 142.964C171.961 134.324 173.982 116.253 178.551 113.09" stroke="white" stroke-width="3" stroke-linecap="round"/>
<path d="M2.81799 123.634H47.1905C48.3621 123.634 51.0566 122.668 52.4625 118.802L58.6131 98.5923C58.906 97.2743 58.9646 94.3747 56.8558 93.3203H30.9352" stroke="white" stroke-width="3" stroke-linecap="round"/>
<path d="M33.5713 114.408L27.86 71.793" stroke="white" stroke-width="3" stroke-linecap="round"/>
<path d="M22.1487 72.2324L28.2993 115.287C29.0315 116.019 31.111 117.044 33.5713 115.287" stroke="white" stroke-width="3" stroke-linecap="round"/>
<path d="M2.37866 102.985L5.01465 95.9562C5.30754 94.9311 6.59625 92.8809 9.40797 92.8809H24.7846" stroke="white" stroke-width="3" stroke-linecap="round"/>
<path d="M49.8265 68.2786C49.6908 68.6179 49.5294 68.9244 49.3469 69.201C47.6387 71.7892 44.0778 71.7509 42.3578 71.3539L2.81799 72.2326M49.8265 68.2786C51.2324 64.764 50.0925 67.4291 49.3469 69.201M49.8265 68.2786L56.8558 46.7512C56.8558 46.4583 56.8558 44.3788 56.8558 38.4039L52.9018 1.5" stroke="white" stroke-width="3" stroke-linecap="round"/>
<path d="M140.329 92.8808V4.13574" stroke="white" stroke-width="3" stroke-linecap="round"/>
<path d="M297.17 246.647C304.2 207.693 321.158 127.676 332.756 119.241C337.149 113.09 348.836 99.9981 360.434 96.835" stroke="white" stroke-width="3" stroke-linecap="round"/>
<path d="M319.137 247.965C331.145 233.174 355.953 201.308 359.116 192.17" stroke="white" stroke-width="2" stroke-linecap="round"/>
<path d="M307.714 248.845C321.48 219.263 350.242 156.497 355.162 142.087" stroke="white" stroke-width="2" stroke-linecap="round"/>
</svg>
